0
SECTION
2
HEADER
9
$INSUNITS
70
4
9
$ACADVER
1
AC1014
9
$HANDSEED
5
FFFF
0
ENDSEC
0
SECTION
2
TABLES
0
TABLE
2
VPORT
5
8
100
AcDbSymbolTable
0
ENDTAB
0
TABLE
2
LTYPE
5
5
100
AcDbSymbolTable
0
LTYPE
5
14
100
AcDbSymbolTableRecord
100
AcDbLinetypeTableRecord
2
BYBLOCK
70
0
0
LTYPE
5
15
100
AcDbSymbolTableRecord
100
AcDbLinetypeTableRecord
2
BYLAYER
70
0
0
ENDTAB
0
TABLE
2
LAYER
5
2
100
AcDbSymbolTable
70
2
0
LAYER
5
50
100
AcDbSymbolTableRecord
100
AcDbLayerTableRecord
2
0
70
0
6
CONTINUOUS
0
ENDTAB
0
TABLE
2
STYLE
5
3
100
AcDbSymbolTable
70
1
0
STYLE
5
11
100
AcDbSymbolTableRecord
100
AcDbTextStyleTableRecord
2
STANDARD
70
0
0
ENDTAB
0
TABLE
2
VIEW
5
6
100
AcDbSymbolTable
70
0
0
ENDTAB
0
TABLE
2
UCS
5
7
100
AcDbSymbolTable
70
0
0
ENDTAB
0
TABLE
2
APPID
5
9
100
AcDbSymbolTable
70
2
0
APPID
5
12
100
AcDbSymbolTableRecord
100
AcDbRegAppTableRecord
2
ACAD
70
0
0
ENDTAB
0
TABLE
2
DIMSTYLE
5
A
100
AcDbSymbolTable
70
1
0
ENDTAB
0
TABLE
2
BLOCK_RECORD
5
1
100
AcDbSymbolTable
70
1
0
BLOCK_RECORD
5
1F
100
AcDbSymbolTableRecord
100
AcDbBlockTableRecord
2
*MODEL_SPACE
0
BLOCK_RECORD
5
1B
100
AcDbSymbolTableRecord
100
AcDbBlockTableRecord
2
*PAPER_SPACE
0
ENDTAB
0
ENDSEC
0
SECTION
2
BLOCKS
0
BLOCK
5
20
100
AcDbEntity
100
AcDbBlockBegin
2
*MODEL_SPACE
0
ENDBLK
5
21
100
AcDbEntity
100
AcDbBlockEnd
0
BLOCK
5
1C
100
AcDbEntity
100
AcDbBlockBegin
2
*PAPER_SPACE
0
ENDBLK
5
1D
100
AcDbEntity
100
AcDbBlockEnd
0
ENDSEC
0
SECTION
2
ENTITIES
0
CIRCLE
5
100
100
AcDbEntity
8
0
100
AcDbCircle
10
0
20
0
30
0
40
2.375
210
0
220
0
230
1
0
CIRCLE
5
101
100
AcDbEntity
8
0
100
AcDbCircle
10
0
20
0
30
0
40
1.925
210
0
220
0
230
1
0
LINE
5
102
100
AcDbEntity
8
0
100
AcDbLine
10
-0.8019507466172715
20
1.7500000000000002
30
0
11
0.80195074661727206
21
1.7500000000000002
31
0
0
LINE
5
103
100
AcDbEntity
8
0
100
AcDbLine
10
-0.80195074661727328
20
-1.7500000000000002
30
0
11
0.80195074661727239
21
-1.7500000000000002
31
0
0
CIRCLE
5
104
100
AcDbEntity
8
0
100
AcDbCircle
10
0
20
0
30
0
40
1.54
210
0
220
0
230
1
0
LINE
5
105
100
AcDbEntity
8
0
100
AcDbLine
10
0
20
0
30
0
11
2.375
21
0
31
0
0
LINE
5
106
100
AcDbEntity
8
0
100
AcDbLine
10
0
20
0
30
0
11
-2.375
21
0
31
0
0
LINE
5
107
100
AcDbEntity
8
0
100
AcDbLine
10
-1.8344882725769118
20
0.58333333333333348
30
0
11
1.425244618380376
21
0.58333333333333337
31
0
0
LINE
5
108
100
AcDbEntity
8
0
100
AcDbLine
10
1.5276751480680351
20
0.19444444444444453
30
0
11
-1.9151543953490253
21
0.19444444444444445
31
0
0
LINE
5
109
100
AcDbEntity
8
0
100
AcDbLine
10
-1.5276751480680348
20
-0.19444444444444436
30
0
11
1.9151543953490253
21
-0.19444444444444459
31
0
0
LINE
5
110
100
AcDbEntity
8
0
100
AcDbLine
10
1.834488272576912
20
-0.58333333333333259
30
0
11
-1.4252446183803751
21
-0.58333333333333415
31
0
0
LINE
5
111
100
AcDbEntity
8
0
100
AcDbLine
10
-1.661447847697088
20
-0.97222222222222188
30
0
11
1.1943131710808867
21
-0.97222222222222265
31
0
0
LINE
5
112
100
AcDbEntity
8
0
100
AcDbLine
10
0.72040026597015805
20
-1.361111111111112
30
0
11
-1.3612499929145558
21
-1.3611111111111103
31
0
0
LINE
5
113
100
AcDbEntity
8
0
100
AcDbLine
10
-1.1943131710808867
20
0.97222222222222221
30
0
11
1.6614478476970875
21
0.97222222222222265
31
0
0
LINE
5
114
100
AcDbEntity
8
0
100
AcDbLine
10
-0.72040026597015938
20
1.3611111111111107
30
0
11
1.3612499929145545
21
1.3611111111111118
31
0
0
LINE
5
115
100
AcDbEntity
8
0
100
AcDbLine
10
-7.4271886589226398e-16
20
-0.19444444444444448
30
0
11
-4.093427927907833e-16
21
-0.58333333333333348
31
0
0
LINE
5
116
100
AcDbEntity
8
0
100
AcDbLine
10
-5.7183892953135374e-17
20
-0.97222222222222232
30
0
11
1.1421024119605021e-16
21
-1.3611111111111112
31
0
0
LINE
5
117
100
AcDbEntity
8
0
100
AcDbLine
10
-1.083567042840025e-15
20
0.19444444444444448
30
0
11
-8.454412763419839e-16
21
0.58333333333333337
31
0
0
LINE
5
118
100
AcDbEntity
8
0
100
AcDbLine
10
-1.0574788183257806e-15
20
0.97222222222222232
30
0
11
-1.5337303513279729e-15
21
1.3611111111111112
31
0
0
LINE
5
119
100
AcDbEntity
8
0
100
AcDbLine
10
-1.0574788183257806e-15
20
0.97222222222222232
30
0
11
-8.454412763419839e-16
21
0.58333333333333337
31
0
0
LINE
5
120
100
AcDbEntity
8
0
100
AcDbLine
10
-1.083567042840025e-15
20
0.19444444444444448
30
0
11
-7.4271886589226398e-16
21
-0.19444444444444448
31
0
0
LINE
5
121
100
AcDbEntity
8
0
100
AcDbLine
10
-4.093427927907833e-16
20
-0.58333333333333348
30
0
11
-5.7183892953135374e-17
21
-0.97222222222222232
31
0
0
LINE
5
122
100
AcDbEntity
8
0
100
AcDbLine
10
1.1421024119605021e-16
20
-1.3611111111111112
30
0
11
-4.5299635004693163e-16
21
-1.7500000000000002
31
0
0
LINE
5
123
100
AcDbEntity
8
0
100
AcDbLine
10
-1.5337303513279729e-15
20
1.3611111111111112
30
0
11
4.3584719748136186e-16
21
1.7500000000000002
31
0
0
LINE
5
124
100
AcDbEntity
8
0
100
AcDbLine
10
0
20
0
30
0
11
-3.4624479247563234e-16
21
2.375
31
0
0
LINE
5
125
100
AcDbEntity
8
0
100
AcDbLine
10
0
20
0
30
0
11
0
21
-2.375
31
0
0
LINE
5
126
100
AcDbEntity
8
0
100
AcDbLine
10
-0.19250000000000103
20
2.375
30
0
11
-0.19250000000000089
21
1.7500000000000002
31
0
0
LINE
5
127
100
AcDbEntity
8
0
100
AcDbLine
10
0.19249999999999984
20
1.7500000000000002
30
0
11
0.19249999999999992
21
2.3671858292073313
31
0
0
LINE
5
128
100
AcDbEntity
8
0
100
AcDbLine
10
-0.19250000000000014
20
-1.7500000000000002
30
0
11
-0.19250000000000006
21
-2.3671858292073313
31
0
0
LINE
5
129
100
AcDbEntity
8
0
100
AcDbLine
10
0.19249999999999992
20
-1.7500000000000002
30
0
11
0.19249999999999992
21
-2.3671858292073318
31
0
0
ENDSEC
0
SECTION
2
OBJECTS
0
DICTIONARY
5
C
100
AcDbDictionary
3
ACAD_GROUP
350
D
3
ACAD_MLINESTYLE
350
17
0
DICTIONARY
5
D
100
AcDbDictionary
0
DICTIONARY
5
1A
330
C
100
AcDbDictionary
0
DICTIONARY
5
17
100
AcDbDictionary
0
ENDSEC
0
EOF
